<svg width="50" height="50" viewBox="0 0 50 50" fill="none" xmlns="http://www.w3.org/2000/svg">
<g clip-path="url(#clip0_402_96)">
<path d="M25 50C38.8071 50 50 38.8071 50 25C50 11.1929 38.8071 0 25 0C11.1929 0 0 11.1929 0 25C0 38.8071 11.1929 50 25 50Z" fill="#D80027"/>
<path d="M39.7743 20.5166H28.4877L25 9.78259L21.5124 20.5166H10.2258L19.3568 27.1506L15.869 37.8848L25 31.2508L34.1311 37.8849L30.6433 27.1507L39.7743 20.5166ZM21.9124 26.3202L23.0917 22.6904H26.9083L28.0877 26.3202V26.3203L25 28.5635L21.9125 26.3203L21.9124 26.3202ZM26.202 20.5166H23.7982L25 16.8174L26.202 20.5166ZM29.9369 24.9767L29.194 22.6905H33.0835L29.9369 24.9767ZM20.806 22.6905L20.0631 24.9767L16.9164 22.6905H20.806ZM20.0041 32.1934L21.206 28.4943L23.1508 29.9072L20.0041 32.1934ZM26.8493 29.9073L28.7941 28.4944L29.996 32.1935L26.8493 29.9073Z" fill="#FFDA44"/>
</g>
<defs>
<clipPath id="clip0_402_96">
<rect width="50" height="50" fill="white"/>
</clipPath>
</defs>
</svg>
