<svg width="50" height="51" viewBox="0 0 50 51" fill="none" xmlns="http://www.w3.org/2000/svg">
<g clip-path="url(#clip0_402_273)">
<path d="M25 50.9091C38.8071 50.9091 50 39.7162 50 25.9091C50 12.1019 38.8071 0.909058 25 0.909058C11.1929 0.909058 0 12.1019 0 25.9091C0 39.7162 11.1929 50.9091 25 50.9091Z" fill="#F0F0F0"/>
<path d="M19.5653 22.6482H49.7884C48.1904 10.3819 37.7019 0.909058 25 0.909058C23.1333 0.909058 21.3152 1.11541 19.5652 1.5033V22.6482H19.5653Z" fill="#D80027"/>
<path d="M13.0434 22.6481V3.94879C6.17889 7.6943 1.26464 14.5645 0.211609 22.6482H13.0434V22.6481Z" fill="#D80027"/>
<path d="M13.0433 29.1699H0.211609C1.26464 37.2536 6.17889 44.1238 13.0434 47.8692L13.0433 29.1699Z" fill="#D80027"/>
<path d="M19.5652 29.17V50.3148C21.3152 50.7027 23.1333 50.9091 25 50.9091C37.7019 50.9091 48.1904 41.4362 49.7884 29.1699H19.5652V29.17Z" fill="#D80027"/>
</g>
<defs>
<clipPath id="clip0_402_273">
<rect width="50" height="50" fill="white" transform="translate(0 0.909058)"/>
</clipPath>
</defs>
</svg>
